<svg width="296" height="88" viewBox="0 0 296 88" fill="none" xmlns="http://www.w3.org/2000/svg">
<path fill-rule="evenodd" clip-rule="evenodd" d="M137.836 49.5496C136.301 49.9322 134.929 50.3143 133.68 50.6623C127.118 52.4906 123.931 53.3785 118.132 48.451C117.062 48.6904 115.863 49.0212 114.592 49.3716C108.529 51.0439 100.85 53.1617 98.0061 47.9018C94.0109 50.9756 74.7059 55.0944 81.1264 45.157C78.5398 40.7264 75.1244 43.677 71.5467 46.7679C70.528 47.6479 69.4962 48.5393 68.4666 49.275C67.5028 49.9635 66.5796 50.7389 65.6736 51.4998C62.3244 54.3129 59.2113 56.9278 55.1574 54.2177C55.3913 51.6535 57.9029 50.5057 60.3775 49.3749L60.3776 49.3749C61.035 49.0745 61.6897 48.7753 62.2985 48.451C66.5039 46.2119 70.0315 43.5893 73.978 40.6553L73.978 40.6553C75.1259 39.8019 76.3091 38.9222 77.5548 38.0179C78.2142 37.539 78.949 36.8413 79.7184 36.1107C81.466 34.4513 83.3924 32.622 85.0206 32.8005C89.5725 33.2984 85.5855 37.3354 84.5401 38.3938C84.469 38.4658 84.4115 38.524 84.3713 38.5664C85.0185 39.5527 86.1567 39.332 87.3577 39.0991C88.4804 38.8815 89.6579 38.6532 90.5403 39.3903C91.1263 41.3717 89.6409 42.6828 88.2129 43.9433C87.0212 44.9952 85.8695 46.0118 85.9947 47.3533C90.1218 47.7395 94.6203 45.2625 98.3731 43.1961L98.3732 43.196L98.3813 43.1916C98.6942 43.0193 99.0019 42.8499 99.3038 42.6852C100.994 41.7635 102.553 40.7685 104.117 39.7709C104.46 39.5524 104.803 39.3337 105.147 39.1157C106.21 38.4423 107.326 37.9186 108.404 37.4128C109.311 36.9871 110.191 36.5742 110.99 36.0954C111.38 35.862 111.782 35.5117 112.204 35.1447C113.572 33.9543 115.144 32.5867 117.158 34.4484C116.239 37.3667 113.716 38.928 111.193 40.4893C108.592 42.0988 105.991 43.7082 105.147 46.804C108.107 48.2375 112.338 46.8459 114.885 45.9801C118.216 44.8487 119.46 43.4659 121.181 41.5543L121.181 41.5542C121.631 41.0536 122.115 40.5168 122.676 39.9388C126.841 35.6541 133.899 31.4332 142.476 33.349C143.401 36.7795 141.583 37.671 139.386 38.7491C138.698 39.0864 137.973 39.442 137.283 39.8994C131.377 39.3216 130.456 39.7504 127.285 42.3427C116.686 51.0142 136.772 46.2954 143.338 44.7527C143.631 44.6839 143.897 44.6214 144.132 44.5667C147.695 43.7377 149.615 42.1394 150.942 41.0345C151.295 40.741 151.605 40.4823 151.894 40.2821C156.146 37.3302 158.662 33.4988 161.101 29.7858C162.754 27.2689 164.371 24.8064 166.469 22.709C166.394 22.2989 166.521 22.0598 166.648 21.8207C166.79 21.5546 166.931 21.2885 166.794 20.7865C167.979 20.0535 168.793 19.0073 169.607 17.9612C170.941 16.2482 172.274 14.5352 175.233 14.1967C176.504 16.4718 174.628 18.7086 172.787 20.9045C171.813 22.0666 170.848 23.2172 170.365 24.3561C169.313 25.85 168.117 27.2221 166.921 28.5942C165.499 30.2253 164.078 31.8564 162.898 33.6923C164.545 34.8154 166.281 34.0601 168.373 33.1505C169.556 32.6359 170.853 32.0719 172.312 31.7706C172.581 31.715 172.872 31.6423 173.175 31.5667L173.175 31.5667C174.963 31.1202 177.148 30.5747 177.506 32.8683C177.648 33.7777 176.053 35.8308 175.233 36.7125C173.464 38.6158 168.789 41.6419 166.794 42.4792C166.207 42.7254 165.461 42.9099 164.693 43.1C162.634 43.6094 160.41 44.1595 160.626 46.0479C161.012 49.4182 168.778 47.401 172.312 46.3226C177.942 44.6052 183.328 42.4499 187.893 39.7328C188.387 39.4384 188.884 39.0532 189.387 38.6621C191.012 37.401 192.716 36.0778 194.71 37.5356C194.117 40.5176 192.421 42.5668 190.725 44.6159C189.836 45.6894 188.947 46.7629 188.217 47.9704C189.336 50.6867 198.118 48.0433 199.904 46.598C201.023 45.6915 202.161 44.5578 203.349 43.3734C205.622 41.1095 208.079 38.6609 210.941 37.2618C213.336 36.0912 216.07 35.4331 218.732 35.614C218.952 37.4167 216.78 40.9226 215.485 41.9701C212.312 44.5374 209.533 45.516 205.111 47.073C204.791 47.1858 204.462 47.3015 204.124 47.4211C205.528 49.2356 209.425 48.791 211.59 48.5197C216.47 47.9081 220.275 45.3585 223.992 42.8675C226.973 40.8702 229.897 38.9107 233.275 38.0179C233.852 38.6664 233.534 40.127 233.237 41.4867C233.037 42.406 232.846 43.2792 232.95 43.824C235.626 44.6236 238.002 43.3358 240.204 42.1426L240.204 42.1424C240.716 41.865 241.219 41.5928 241.713 41.353C242.192 41.1218 242.775 40.9653 243.342 40.8128C243.947 40.6505 244.534 40.4928 244.96 40.2544C245.853 39.7554 246.606 39.0684 247.354 38.3855C248.693 37.1641 250.017 35.956 252.102 35.861C253.776 38.2612 251.946 39.6377 249.956 41.1345C248.309 42.3732 246.553 43.6944 246.583 45.7465C247.228 47.5712 249.02 48.4267 250.811 49.2819C251.025 49.3843 251.24 49.4866 251.452 49.5906C258.653 49.9909 264.586 48.5819 268.007 46.0211C288.585 30.62 293.333 14.5987 294.857 9.45674C295.033 8.86374 295.165 8.41544 295.275 8.12946C295.652 8.08425 295.853 8.18975 295.924 8.40327C294.63 22.7115 287.306 33.2535 278.07 41.6277C277.543 42.1057 276.995 42.6347 276.423 43.1858C274.456 45.0832 272.216 47.243 269.63 48.4921C268.354 49.1092 264.366 50.5402 262.814 50.963C256.412 52.7105 246.26 51.9519 243.986 47.3943C244.335 45.3605 243.404 44.4076 242.364 43.5502C239.32 43.737 237.033 45.3156 234.827 46.8383C231.96 48.8163 229.231 50.6999 225.159 49.316C224.879 48.3444 225.365 47.7198 225.797 47.1653C226.22 46.6206 226.592 46.1436 226.132 45.4718C224.89 44.7448 222.862 45.8955 220.763 47.0868C219.358 47.8836 217.922 48.6987 216.667 48.9819C214.907 49.3799 213.789 49.6745 212.854 49.9209C210.982 50.4144 209.843 50.7147 205.746 51.2653C202.986 51.6362 200.309 51.6321 197.631 50.1667C196.661 50.3998 195.59 50.7198 194.457 51.0586C189.856 52.4339 184.224 54.1178 180.102 51.54C180.046 51.3292 179.992 51.1163 179.938 50.9034C179.553 49.3826 179.168 47.8619 177.83 47.1465C176.543 47.404 174.912 47.9771 173.118 48.607C168.134 50.3576 161.901 52.5466 158.354 49.6174C157.586 48.983 157.418 48.026 157.242 47.0191C157.066 46.0139 156.882 44.959 156.082 44.1254C152.88 45.5913 150.511 47.7612 148.141 49.9313C147.03 50.9495 145.918 51.9677 144.72 52.9132C143.298 53.0458 142.513 52.6412 141.728 52.2364C141.438 52.0868 141.148 51.9371 140.825 51.8146C140.826 50.9024 141.315 50.404 141.805 49.9057C142.248 49.4544 142.692 49.003 142.772 48.2442L137.836 49.5496ZM161.884 39.4139C161.764 39.5147 161.616 39.6107 161.465 39.7082C161.033 39.9869 160.582 40.2784 160.728 40.7343C163.475 39.9548 167.095 38.6913 169.785 37.3122C171.02 36.6783 172.669 35.6132 172.599 34.4108C167.458 35.0589 164.181 37.4788 161.884 39.4139ZM137.471 37.502C137.471 37.502 134.803 36.7786 134.552 36.8414C134.619 36.7735 134.681 36.7082 134.741 36.6454C135.398 35.9595 135.775 35.5651 138.762 35.16C138.765 35.2468 138.769 35.3331 138.773 35.4184L138.773 35.4198C138.801 36.0356 138.826 36.5966 138.492 36.895C138.203 37.152 137.471 37.502 137.471 37.502ZM185.781 46.7631C185.878 47.3786 189.781 42.0264 189.812 41.5658C187.541 41.9477 184.23 44.2054 182.439 45.4265C182.086 45.6671 181.792 45.8675 181.576 46.0053C181.576 46.0053 185.684 46.1468 185.781 46.7631ZM206.886 43.2855C206.976 43.2072 207.064 43.1301 207.132 43.0523C208.444 41.5518 210.358 39.641 213.742 38.7635C213.935 39.5665 212.954 40.4256 212.198 40.9581C210.553 42.1178 208.269 43.28 206.513 44.0412C206.36 43.7461 206.629 43.5106 206.886 43.2855Z" fill="white"/>
<path fill-rule="evenodd" clip-rule="evenodd" d="M0.967812 79.7149C3.28178 79.2542 4.54133 75.0713 4.54133 75.0713C9.03151 63.9108 17.7602 54.8262 22.4149 53.7632C22.4149 53.7632 30.8234 49.9602 37.0389 49.6661C48.0805 49.1438 57.0787 48.3674 64.0107 44.4753C68.266 42.0869 69.5712 36.7311 61.7364 36.2804C55.472 35.9202 48.8947 37.9846 42.9883 39.8383C42.4066 40.0209 41.8313 40.2015 41.2635 40.3775C38.2479 41.313 35.2452 42.4418 32.4893 43.6556C31.33 44.1661 30.2162 44.8126 29.1492 45.432C27.5574 46.356 26.0696 47.2197 24.6902 47.481C20.4507 48.2833 16.4253 46.9812 14.9408 45.2959C14.703 42.5034 15.9714 40.2275 17.5402 38.4656C20.0672 35.629 24.712 32.8665 28.9148 30.5431C36.0836 26.5794 43.7499 23.6087 51.987 20.7088C52.685 20.4632 53.4587 20.2613 54.2478 20.0554C56.8883 19.3663 59.7022 18.632 60.4362 16.0652C57.9658 14.925 55.0802 15.9003 52.3022 16.8393C50.8423 17.3327 49.4121 17.8161 48.0875 17.9771C44.0066 18.4736 40.0099 17.7722 39.6383 15.2455C39.0982 11.5683 47.2025 8.30855 50.3618 7.32304C50.9415 8.55328 50.2479 9.02898 49.5194 9.52862C48.8256 10.0044 48.1003 10.5019 48.4125 11.6933C49.3975 15.4555 56.1727 11.0684 57.9508 9.91706C58.0314 9.86483 58.1018 9.81926 58.1609 9.78142C61.0625 7.92451 65.4903 4.5356 65.3109 2.40544C65.1345 0.308616 61.4203 -0.409488 57.8359 0.22031C52.8621 1.0942 44.5368 4.9413 40.6124 7.59628C38.6295 8.93669 35.489 12.3931 35.4137 14.6982C35.3372 17.0666 36.6865 18.0509 38.6696 19.4977C39.3602 20.0015 40.1276 20.5613 40.9385 21.2552C38.3475 22.9903 34.7423 24.6415 30.9516 26.3778C26.097 28.6014 20.938 30.9644 17.2151 33.8212C14.4512 35.943 10.3624 40.1359 10.0661 43.1091C9.60133 47.7676 14.1559 49.5179 18.8403 50.4859C17.8665 52.4905 16.1644 53.8839 14.4623 55.2774C13.3654 56.1754 12.2684 57.0734 11.3663 58.1351L8.76691 61.14C6.52019 64.7295 4.49665 69.0004 2.55475 73.0989C2.24053 73.7621 1.92845 74.4208 1.6179 75.0713C1.46696 75.3869 1.23769 75.7308 0.998803 76.0892C0.180576 77.3168 -0.750377 78.7135 0.967812 79.7149ZM34.594 45.6894C34.9991 45.566 35.3977 45.4445 35.7384 45.2962C42.2839 42.4404 51.3544 39.099 63.0362 40.651C62.2187 43.2835 57.779 44.6389 54.587 45.2962C47.6313 46.7265 38.7589 47.3772 32.1649 47.4813C32.217 46.4138 33.432 46.0436 34.594 45.6894Z" fill="white"/>
<path d="M50.0795 71.3066H57.5805C59.4108 71.3066 61.0368 71.6564 62.4586 72.3559C63.8803 73.0396 64.9834 74.0173 65.7678 75.2892C66.5523 76.5451 66.9445 77.9998 66.9445 79.6532C66.9445 81.3066 66.5523 82.7693 65.7678 84.0411C64.9834 85.2971 63.8803 86.2748 62.4586 86.9744C61.0368 87.658 59.4108 87.9998 57.5805 87.9998H50.0795V71.3066ZM57.4334 85.3766C58.6917 85.3766 59.7948 85.1461 60.7427 84.685C61.7068 84.2081 62.4422 83.5403 62.9488 82.6818C63.4718 81.8074 63.7333 80.7979 63.7333 79.6532C63.7333 78.5085 63.4718 77.507 62.9488 76.6485C62.4422 75.774 61.7068 75.1063 60.7427 74.6453C59.7948 74.1683 58.6917 73.9299 57.4334 73.9299H53.2662V85.3766H57.4334Z" fill="white"/>
<path d="M100.955 85.4004V87.9998H88.086V71.3066H100.612V73.906H91.2727V78.2462H99.5581V80.7979H91.2727V85.4004H100.955Z" fill="white"/>
<path d="M137.509 71.3066V87.9998H134.886L125.424 76.6961V87.9998H122.262V71.3066H124.885L134.347 82.6103V71.3066H137.509Z" fill="white"/>
<path d="M163.343 73.9299H157.656V71.3066H172.216V73.9299H166.529V87.9998H163.343V73.9299Z" fill="white"/>
<path d="M202.63 84.1365H194.05L192.359 87.9998H189.074L196.795 71.3066H199.933L207.679 87.9998H204.345L202.63 84.1365ZM201.576 81.7041L198.34 74.4068L195.129 81.7041H201.576Z" fill="white"/>
<path d="M227.616 71.3066H230.803V85.3766H239.774V87.9998H227.616V71.3066Z" fill="white"/>
<path d="M123 28.5C123 29.8807 121.528 31 120.273 31C119.018 31 118 29.8807 118 28.5C118 27.1193 119.927 26 121.182 26C122.437 26 123 27.1193 123 28.5Z" fill="white"/>
</svg>
